<?xml version="1.0" encoding="UTF-8" standalone="no"?>
<!DOCTYPE svg PUBLIC "-//W3C//DTD SVG 1.1//EN" "http://www.w3.org/Graphics/SVG/1.1/DTD/svg11.dtd">
<svg width="100%" height="100%" viewBox="0 0 24 24" version="1.1" xmlns="http://www.w3.org/2000/svg" xmlns:xlink="http://www.w3.org/1999/xlink" xml:space="preserve" xmlns:serif="http://www.serif.com/" style="fill-rule:evenodd;clip-rule:evenodd;stroke-linejoin:round;stroke-miterlimit:2;">
    <path d="M12.683,22L12.683,14.255L10.076,14.255L10.076,11.237L12.683,11.237L12.683,9.01C12.671,8.89 12.665,8.769 12.665,8.647C12.665,6.652 14.307,5.01 16.302,5.01C16.39,5.01 16.477,5.014 16.565,5.02C17.343,5.017 18.12,5.057 18.894,5.139L18.894,7.839L17.295,7.839C16.042,7.839 15.8,8.435 15.8,9.309L15.8,11.236L18.789,11.236L18.399,14.254L15.799,14.254L15.799,22L12.683,22Z" style="fill:rgb(65,146,237);fill-opacity:0.3;fill-rule:nonzero;"/>
    <path d="M20.999,2L2.998,2C2.449,2 1.998,2.451 1.998,3L1.998,21.001C1.998,21.55 2.449,22.001 2.998,22.001L20.999,22.001C21.548,22.001 21.999,21.55 21.999,21.001L21.999,3C21.999,2.451 21.548,2 20.999,2ZM18.894,7.84L17.295,7.84C16.042,7.84 15.8,8.436 15.8,9.31L15.8,11.236L18.789,11.236L18.399,14.255L15.799,14.255L15.799,22L12.683,22L12.683,14.255L10.076,14.255L10.076,11.236L12.683,11.236L12.683,9.01C12.671,8.89 12.665,8.769 12.665,8.647C12.665,6.652 14.307,5.01 16.302,5.01C16.39,5.01 16.477,5.014 16.565,5.02C17.343,5.018 18.12,5.058 18.894,5.14L18.894,7.84Z" style="fill:rgb(65,146,237);fill-rule:nonzero;"/>
</svg>
