<?xml version="1.0" encoding="UTF-8" standalone="no"?>
<!DOCTYPE svg PUBLIC "-//W3C//DTD SVG 1.1//EN" "http://www.w3.org/Graphics/SVG/1.1/DTD/svg11.dtd">
<svg width="100%" height="100%" viewBox="0 0 439 77" version="1.1" xmlns="http://www.w3.org/2000/svg" xmlns:xlink="http://www.w3.org/1999/xlink" xml:space="preserve" xmlns:serif="http://www.serif.com/" style="fill-rule:evenodd;clip-rule:evenodd;stroke-linejoin:round;stroke-miterlimit:2;">
    <g transform="matrix(1,0,0,1,-618.137,-1250.79)">
        <g transform="matrix(2.60149,0,0,2.60149,313.398,811.131)">
            <path d="M117.14,186.253L128.05,186.253L128.05,183.804L119.73,183.804L119.73,178.788L126.831,178.788L126.831,176.491L119.73,176.491L119.73,171.616L128.05,171.616L128.05,169.167L117.14,169.167L117.14,186.253Z" style="fill:white;fill-rule:nonzero;"/>
        </g>
        <g transform="matrix(2.60149,0,0,2.60149,311.089,811.131)">
            <path d="M130.265,186.253L132.714,186.253L132.714,178.929C132.73,178.038 132.988,177.394 133.488,176.995C133.933,176.589 134.468,176.386 135.093,176.386C135.648,176.386 136.183,176.589 136.699,176.995L138.48,174.874C137.753,174.265 136.902,173.952 135.925,173.937C134.62,173.937 133.566,174.417 132.761,175.378L132.714,175.378L132.714,174.089L130.265,174.089L130.265,186.253Z" style="fill:white;fill-rule:nonzero;"/>
        </g>
        <g transform="matrix(2.60149,0,0,2.60149,311.089,811.131)">
            <path d="M139.031,186.253L141.48,186.253L141.48,179.011C141.48,178.159 141.71,177.511 142.171,177.066C142.624,176.613 143.202,176.386 143.906,176.386C144.609,176.386 145.183,176.613 145.628,177.066C146.081,177.511 146.308,178.159 146.308,179.011L146.308,186.253L148.757,186.253L148.757,178.167C148.718,176.777 148.285,175.722 147.456,175.003C146.62,174.292 145.699,173.937 144.691,173.937C143.386,173.937 142.331,174.417 141.527,175.378L141.48,175.378L141.48,174.089L139.031,174.089L139.031,186.253Z" style="fill:white;fill-rule:nonzero;"/>
        </g>
        <g transform="matrix(2.60149,0,0,2.60149,307.24,811.131)">
            <path d="M161.355,181.097L161.355,179.081C161.339,177.48 160.843,176.222 159.867,175.308C158.906,174.409 157.73,173.952 156.339,173.937C155.761,173.937 155.175,174.042 154.581,174.253C153.98,174.464 153.437,174.808 152.952,175.284C152.476,175.753 152.085,176.394 151.781,177.206C151.476,178.003 151.324,179.003 151.324,180.206C151.324,181.456 151.499,182.472 151.851,183.253C152.171,184.066 152.589,184.698 153.105,185.152C153.37,185.37 153.656,185.554 153.96,185.702C154.249,185.874 154.546,186.011 154.851,186.113C155.46,186.3 156.085,186.394 156.726,186.394C158.406,186.409 159.867,185.753 161.109,184.425L159.339,182.913C158.558,183.702 157.671,184.097 156.679,184.097C155.827,184.097 155.14,183.839 154.617,183.323C154.054,182.816 153.773,182.073 153.773,181.097L161.355,181.097ZM153.773,179.081C153.82,178.136 154.074,177.421 154.535,176.937C155.003,176.476 155.605,176.245 156.339,176.245C157.074,176.245 157.675,176.476 158.144,176.937C158.62,177.421 158.874,178.136 158.906,179.081L153.773,179.081Z" style="fill:white;fill-rule:nonzero;"/>
        </g>
        <g transform="matrix(2.60149,0,0,2.60149,304.932,811.131)">
            <path d="M164.285,182.538L162.574,184.214C164.16,185.667 165.945,186.394 167.929,186.394C169.39,186.378 170.589,186.042 171.527,185.386C172.472,184.745 172.952,183.835 172.968,182.655C172.968,181.648 172.706,180.816 172.183,180.159C171.62,179.488 170.706,179.105 169.441,179.011L167.425,178.859C166.831,178.796 166.417,178.652 166.183,178.425C165.925,178.222 165.804,177.984 165.82,177.71C165.82,177.28 165.98,176.929 166.3,176.655C166.605,176.382 167.14,176.245 167.906,176.245C168.577,176.245 169.171,176.343 169.687,176.538C170.21,176.757 170.706,177.034 171.175,177.37L172.687,175.601C172.093,175.085 171.421,174.675 170.671,174.37C170.281,174.23 169.863,174.12 169.417,174.042C168.972,173.972 168.468,173.937 167.906,173.937C166.609,173.937 165.538,174.249 164.695,174.874C163.827,175.499 163.386,176.437 163.37,177.687C163.386,178.726 163.722,179.534 164.378,180.113C165.019,180.706 165.851,181.05 166.874,181.144L169.031,181.331C169.484,181.347 169.847,181.445 170.12,181.624C170.386,181.796 170.519,182.101 170.519,182.538C170.519,183.03 170.296,183.413 169.851,183.687C169.406,183.96 168.831,184.097 168.128,184.097C166.558,184.097 165.277,183.577 164.285,182.538Z" style="fill:white;fill-rule:nonzero;"/>
        </g>
        <g transform="matrix(2.60149,0,0,2.60149,301.853,811.131)">
            <path d="M175.581,174.089L174.363,174.089L174.363,175.952L175.581,175.952L175.581,183.253C175.581,184.214 175.863,184.948 176.425,185.456C176.972,185.988 177.675,186.253 178.535,186.253L179.812,186.253L179.812,183.945L178.898,183.945C178.304,183.96 178.015,183.659 178.031,183.042L178.031,175.952L179.812,175.952L179.812,174.089L178.031,174.089L178.031,170.386L175.581,170.386L175.581,174.089Z" style="fill:white;fill-rule:nonzero;"/>
        </g>
        <g transform="matrix(2.60149,0,0,2.60149,298.774,811.131)">
            <path d="M181.511,180.159C181.511,181.441 181.617,182.417 181.827,183.089C182.046,183.761 182.382,184.343 182.835,184.835C183.171,185.218 183.64,185.562 184.242,185.866C184.835,186.202 185.597,186.378 186.527,186.394C187.488,186.378 188.265,186.202 188.859,185.866C189.179,185.726 189.441,185.558 189.644,185.363C189.87,185.191 190.062,185.015 190.218,184.835C190.702,184.343 191.046,183.761 191.249,183.089C191.445,182.417 191.542,181.441 191.542,180.159C191.542,178.878 191.445,177.894 191.249,177.206C191.046,176.534 190.702,175.968 190.218,175.507C189.898,175.101 189.445,174.738 188.859,174.417C188.265,174.113 187.488,173.952 186.527,173.937C185.597,173.952 184.835,174.113 184.242,174.417C183.64,174.738 183.171,175.101 182.835,175.507C182.382,175.968 182.046,176.534 181.827,177.206C181.617,177.894 181.511,178.878 181.511,180.159ZM189.093,180.183C189.093,181.011 189.054,181.62 188.976,182.011C188.898,182.409 188.738,182.761 188.495,183.066C188.316,183.3 188.05,183.507 187.699,183.687C187.363,183.859 186.972,183.945 186.527,183.945C186.113,183.945 185.73,183.859 185.378,183.687C185.042,183.507 184.769,183.3 184.558,183.066C184.347,182.761 184.195,182.409 184.101,182.011C184.007,181.62 183.96,181.003 183.96,180.159C183.96,179.308 184.007,178.683 184.101,178.284C184.195,177.902 184.347,177.566 184.558,177.277C184.769,177.003 185.042,176.788 185.378,176.632C185.73,176.468 186.113,176.386 186.527,176.386C186.972,176.386 187.363,176.468 187.699,176.632C188.05,176.788 188.316,177.003 188.495,177.277C188.738,177.566 188.898,177.902 188.976,178.284C189.054,178.683 189.093,179.316 189.093,180.183Z" style="fill:white;fill-rule:nonzero;"/>
        </g>
        <g transform="matrix(2.60149,0,0,2.60149,289.538,811.131)">
            <path d="M200.085,186.253L202.675,186.253L202.675,175.601L202.722,175.601L206.296,183.804L208.452,183.804L212.027,175.601L212.085,175.601L212.085,186.253L214.675,186.253L214.675,169.167L212.226,169.167L207.421,180.3L202.523,169.167L200.085,169.167L200.085,186.253Z" style="fill:white;fill-rule:nonzero;"/>
        </g>
        <g transform="matrix(2.60149,0,0,2.60149,286.46,811.131)">
            <path d="M224.437,186.253L226.886,186.253L226.886,177.945C226.87,176.46 226.406,175.413 225.492,174.804C224.577,174.21 223.355,173.921 221.824,173.937C220.011,173.905 218.64,174.499 217.71,175.718L219.632,177.183C219.843,176.831 220.132,176.581 220.499,176.433C220.851,176.308 221.331,176.245 221.941,176.245C223.62,176.214 224.452,176.734 224.437,177.804L224.437,179.081L221.05,179.081C219.753,179.097 218.769,179.448 218.097,180.136C217.425,180.808 217.089,181.655 217.089,182.679C217.089,183.749 217.476,184.628 218.249,185.316C218.984,186.019 220.031,186.378 221.39,186.394C222.218,186.394 222.867,186.292 223.335,186.089C223.812,185.894 224.163,185.589 224.39,185.175L224.437,185.175L224.437,186.253ZM224.437,181.976C224.437,182.89 224.245,183.476 223.863,183.734C223.441,183.991 222.718,184.113 221.695,184.097C220.882,184.097 220.3,183.937 219.949,183.616C219.581,183.327 219.398,182.976 219.398,182.562C219.382,181.616 220.085,181.128 221.507,181.097L224.437,181.097L224.437,181.976Z" style="fill:white;fill-rule:nonzero;"/>
        </g>
        <g transform="matrix(2.60149,0,0,2.60149,282.612,811.131)">
            <path d="M230.05,186.253L232.499,186.253L232.499,179.011C232.499,178.159 232.73,177.511 233.191,177.066C233.644,176.613 234.222,176.386 234.925,176.386C235.628,176.386 236.202,176.613 236.648,177.066C237.101,177.511 237.327,178.159 237.327,179.011L237.327,186.253L239.777,186.253L239.777,178.167C239.738,176.777 239.304,175.722 238.476,175.003C237.64,174.292 236.718,173.937 235.71,173.937C234.406,173.937 233.351,174.417 232.546,175.378L232.499,175.378L232.499,174.089L230.05,174.089L230.05,186.253Z" style="fill:white;fill-rule:nonzero;"/>
        </g>
        <g transform="matrix(2.60149,0,0,2.60149,278.763,811.131)">
            <path d="M242.941,186.253L245.39,186.253L245.39,178.929C245.406,178.038 245.663,177.394 246.163,176.995C246.609,176.589 247.144,176.386 247.769,176.386C248.324,176.386 248.859,176.589 249.374,176.995L251.156,174.874C250.429,174.265 249.577,173.952 248.601,173.937C247.296,173.937 246.242,174.417 245.437,175.378L245.39,175.378L245.39,174.089L242.941,174.089L242.941,186.253Z" style="fill:white;fill-rule:nonzero;"/>
        </g>
        <g transform="matrix(2.60149,0,0,2.60149,277.994,811.131)">
            <rect x="252.351" y="174.089" width="2.449" height="12.164" style="fill:white;fill-rule:nonzero;"/>
        </g>
        <g transform="matrix(2.60149,0,0,2.60149,274.145,811.131)">
            <path d="M264.878,184.952L264.878,188.945L267.327,188.945L267.327,174.089L264.878,174.089L264.878,175.355C264.074,174.448 263.027,173.976 261.738,173.937C260.245,173.976 259.156,174.507 258.468,175.53C258.132,175.913 257.91,176.417 257.8,177.042C257.667,177.659 257.601,178.706 257.601,180.183C257.601,181.62 257.667,182.652 257.8,183.277C257.91,183.902 258.132,184.413 258.468,184.812C258.835,185.28 259.292,185.655 259.839,185.937C260.363,186.226 260.995,186.378 261.738,186.394C262.355,186.394 262.929,186.257 263.46,185.984C263.952,185.734 264.425,185.39 264.878,184.952ZM262.476,183.945C261.898,183.945 261.456,183.835 261.152,183.616C260.816,183.39 260.57,183.101 260.413,182.749C260.265,182.382 260.167,181.976 260.12,181.53C260.074,181.093 260.05,180.644 260.05,180.183C260.05,179.698 260.074,179.226 260.12,178.765C260.167,178.304 260.265,177.898 260.413,177.546C260.57,177.179 260.816,176.89 261.152,176.679C261.456,176.484 261.898,176.386 262.476,176.386C263.054,176.386 263.511,176.499 263.847,176.726C264.183,176.952 264.413,177.249 264.538,177.616C264.702,177.984 264.808,178.382 264.855,178.812C264.87,179.265 264.878,179.722 264.878,180.183C264.878,180.613 264.87,181.042 264.855,181.472C264.808,181.925 264.702,182.335 264.538,182.702C264.413,183.07 264.183,183.366 263.847,183.593C263.511,183.827 263.054,183.945 262.476,183.945Z" style="fill:white;fill-rule:nonzero;"/>
        </g>
        <g transform="matrix(2.60149,0,0,2.60149,270.297,811.131)">
            <path d="M270.492,182.175C270.507,183.55 270.956,184.589 271.839,185.292C272.652,186.011 273.562,186.378 274.57,186.394C275.867,186.394 276.917,185.913 277.722,184.952L277.769,184.952L277.769,186.253L280.218,186.253L280.218,174.089L277.769,174.089L277.769,181.331C277.769,182.152 277.542,182.792 277.089,183.253C276.644,183.714 276.07,183.945 275.367,183.945C274.663,183.945 274.085,183.714 273.632,183.253C273.171,182.792 272.941,182.152 272.941,181.331L272.941,174.089L270.492,174.089L270.492,182.175Z" style="fill:white;fill-rule:nonzero;"/>
        </g>
        <g transform="matrix(2.60149,0,0,2.60149,266.988,811.131)">
            <path d="M292.816,181.097L292.816,179.081C292.8,177.48 292.304,176.222 291.327,175.308C290.367,174.409 289.191,173.952 287.8,173.937C287.222,173.937 286.636,174.042 286.042,174.253C285.441,174.464 284.898,174.808 284.413,175.284C283.937,175.753 283.546,176.394 283.242,177.206C282.937,178.003 282.785,179.003 282.785,180.206C282.785,181.456 282.96,182.472 283.312,183.253C283.632,184.066 284.05,184.698 284.566,185.152C284.831,185.37 285.117,185.554 285.421,185.702C285.71,185.874 286.007,186.011 286.312,186.113C286.921,186.3 287.546,186.394 288.187,186.394C289.867,186.409 291.327,185.753 292.57,184.425L290.8,182.913C290.019,183.702 289.132,184.097 288.14,184.097C287.288,184.097 286.601,183.839 286.077,183.323C285.515,182.816 285.234,182.073 285.234,181.097L292.816,181.097ZM285.234,179.081C285.281,178.136 285.535,177.421 285.995,176.937C286.464,176.476 287.066,176.245 287.8,176.245C288.535,176.245 289.136,176.476 289.605,176.937C290.081,177.421 290.335,178.136 290.367,179.081L285.234,179.081Z" style="fill:white;fill-rule:nonzero;"/>
        </g>
        <g transform="matrix(2.60149,0,0,2.60149,264.679,811.131)">
            <path d="M294.597,186.253L303.667,186.253L303.667,183.945L297.574,183.945L303.667,176.034L303.667,174.089L294.925,174.089L294.925,176.245L300.691,176.245L294.597,184.308L294.597,186.253Z" style="fill:white;fill-rule:nonzero;"/>
        </g>
        <g transform="matrix(0.79464,0,0,0.79464,608.066,451.876)">
            <path d="M415.373,1005.38L417.002,1010.34L422.123,1010.39L417.974,1013.38L419.58,1018.35L415.326,1015.27L411.131,1018.34L412.748,1013.38L408.541,1010.31L413.732,1010.34L415.373,1005.38Z" style="fill:white;fill-rule:nonzero;"/>
        </g>
        <g transform="matrix(0.79464,0,0,0.79464,609.809,451.876)">
            <path d="M438.029,1005.38L439.658,1010.34L444.779,1010.39L440.631,1013.38L442.236,1018.35L437.982,1015.27L433.787,1018.34L435.404,1013.38L431.197,1010.31L436.389,1010.34L438.029,1005.38Z" style="fill:white;fill-rule:nonzero;"/>
        </g>
        <g transform="matrix(0.79464,0,0,0.79464,611.552,451.876)">
            <path d="M460.686,1005.38L462.315,1010.34L467.436,1010.39L463.287,1013.38L464.893,1018.35L460.639,1015.27L456.443,1018.34L458.061,1013.38L453.854,1010.31L459.045,1010.34L460.686,1005.38Z" style="fill:white;fill-rule:nonzero;"/>
        </g>
        <g transform="matrix(0.79464,0,0,0.79464,612.295,451.876)">
            <path d="M483.342,1005.38L484.971,1010.34L490.092,1010.39L485.944,1013.38L487.549,1018.35L483.295,1015.27L479.1,1018.34L480.717,1013.38L476.51,1010.31L481.701,1010.34L483.342,1005.38Z" style="fill:white;fill-rule:nonzero;"/>
        </g>
        <g transform="matrix(0.79464,0,0,0.79464,614.038,451.876)">
            <path d="M505.998,1005.38L507.627,1010.34L512.748,1010.39L508.6,1013.38L510.205,1018.35L505.952,1015.27L501.756,1018.34L503.373,1013.38L499.166,1010.31L504.358,1010.34L505.998,1005.38Z" style="fill:white;fill-rule:nonzero;"/>
        </g>
        <g transform="matrix(0.79464,0,0,0.79464,613.781,451.876)">
            <path d="M528.655,1005.38L530.284,1010.34L535.405,1010.39L531.256,1013.38L532.862,1018.35L528.608,1015.27L524.413,1018.34L526.03,1013.38L521.823,1010.31L527.014,1010.34L528.655,1005.38Z" style="fill:white;fill-rule:nonzero;"/>
        </g>
        <g transform="matrix(0.79464,0,0,0.79464,613.524,451.876)">
            <path d="M551.311,1005.38L552.94,1010.34L558.061,1010.39L553.913,1013.38L555.518,1018.35L551.264,1015.27L547.069,1018.34L548.686,1013.38L544.479,1010.31L549.671,1010.34L551.311,1005.38Z" style="fill:white;fill-rule:nonzero;"/>
        </g>
        <g transform="matrix(1.16779,0,0,1.16779,517.708,1024.85)">
            <g transform="matrix(24,0,0,24,461.782,258.695)">
            </g>
            <text x="92.595px" y="258.695px" style="font-family:'DINAlternate-Bold', 'DIN Alternate', sans-serif;font-weight:700;font-size:24px;fill:white;">ASISTENCIA MIGRA<tspan x="289.153px 300.72px 315.356px " y="258.695px 258.695px 258.695px ">TOR</tspan>IA INTEGRAL</text>
        </g>
    </g>
</svg>
