<?xml version="1.0" encoding="UTF-8" standalone="no"?>
<!DOCTYPE svg PUBLIC "-//W3C//DTD SVG 1.1//EN" "http://www.w3.org/Graphics/SVG/1.1/DTD/svg11.dtd">
<svg width="100%" height="100%" viewBox="0 0 439 77" version="1.1" xmlns="http://www.w3.org/2000/svg" xmlns:xlink="http://www.w3.org/1999/xlink" xml:space="preserve" xmlns:serif="http://www.serif.com/" style="fill-rule:evenodd;clip-rule:evenodd;stroke-linejoin:round;stroke-miterlimit:2;">
    <g transform="matrix(2.60149,0,0,2.60149,-304.739,-439.657)">
        <path d="M117.14,186.253L128.05,186.253L128.05,183.804L119.73,183.804L119.73,178.788L126.831,178.788L126.831,176.491L119.73,176.491L119.73,171.616L128.05,171.616L128.05,169.167L117.14,169.167L117.14,186.253Z" style="fill:white;fill-rule:nonzero;"/>
    </g>
    <g transform="matrix(2.60149,0,0,2.60149,-307.048,-439.657)">
        <path d="M130.265,186.253L132.714,186.253L132.714,178.929C132.73,178.038 132.988,177.394 133.488,176.995C133.933,176.589 134.468,176.386 135.093,176.386C135.648,176.386 136.183,176.589 136.699,176.995L138.48,174.874C137.753,174.265 136.902,173.952 135.925,173.937C134.62,173.937 133.566,174.417 132.761,175.378L132.714,175.378L132.714,174.089L130.265,174.089L130.265,186.253Z" style="fill:white;fill-rule:nonzero;"/>
    </g>
    <g transform="matrix(2.60149,0,0,2.60149,-307.048,-439.657)">
        <path d="M139.031,186.253L141.48,186.253L141.48,179.011C141.48,178.159 141.71,177.511 142.171,177.066C142.624,176.613 143.202,176.386 143.906,176.386C144.609,176.386 145.183,176.613 145.628,177.066C146.081,177.511 146.308,178.159 146.308,179.011L146.308,186.253L148.757,186.253L148.757,178.167C148.718,176.777 148.285,175.722 147.456,175.003C146.62,174.292 145.699,173.937 144.691,173.937C143.386,173.937 142.331,174.417 141.527,175.378L141.48,175.378L141.48,174.089L139.031,174.089L139.031,186.253Z" style="fill:white;fill-rule:nonzero;"/>
    </g>
    <g transform="matrix(2.60149,0,0,2.60149,-310.896,-439.657)">
        <path d="M161.355,181.097L161.355,179.081C161.339,177.48 160.843,176.222 159.867,175.308C158.906,174.409 157.73,173.952 156.339,173.937C155.761,173.937 155.175,174.042 154.581,174.253C153.98,174.464 153.437,174.808 152.952,175.284C152.476,175.753 152.085,176.394 151.781,177.206C151.476,178.003 151.324,179.003 151.324,180.206C151.324,181.456 151.499,182.472 151.851,183.253C152.171,184.066 152.589,184.698 153.105,185.152C153.37,185.37 153.656,185.554 153.96,185.702C154.249,185.874 154.546,186.011 154.851,186.113C155.46,186.3 156.085,186.394 156.726,186.394C158.406,186.409 159.867,185.753 161.109,184.425L159.339,182.913C158.558,183.702 157.671,184.097 156.679,184.097C155.827,184.097 155.14,183.839 154.617,183.323C154.054,182.816 153.773,182.073 153.773,181.097L161.355,181.097ZM153.773,179.081C153.82,178.136 154.074,177.421 154.535,176.937C155.003,176.476 155.605,176.245 156.339,176.245C157.074,176.245 157.675,176.476 158.144,176.937C158.62,177.421 158.874,178.136 158.906,179.081L153.773,179.081Z" style="fill:white;fill-rule:nonzero;"/>
    </g>
    <g transform="matrix(2.60149,0,0,2.60149,-313.205,-439.657)">
        <path d="M164.285,182.538L162.574,184.214C164.16,185.667 165.945,186.394 167.929,186.394C169.39,186.378 170.589,186.042 171.527,185.386C172.472,184.745 172.952,183.835 172.968,182.655C172.968,181.648 172.706,180.816 172.183,180.159C171.62,179.488 170.706,179.105 169.441,179.011L167.425,178.859C166.831,178.796 166.417,178.652 166.183,178.425C165.925,178.222 165.804,177.984 165.82,177.71C165.82,177.28 165.98,176.929 166.3,176.655C166.605,176.382 167.14,176.245 167.906,176.245C168.577,176.245 169.171,176.343 169.687,176.538C170.21,176.757 170.706,177.034 171.175,177.37L172.687,175.601C172.093,175.085 171.421,174.675 170.671,174.37C170.281,174.23 169.863,174.12 169.417,174.042C168.972,173.972 168.468,173.937 167.906,173.937C166.609,173.937 165.538,174.249 164.695,174.874C163.827,175.499 163.386,176.437 163.37,177.687C163.386,178.726 163.722,179.534 164.378,180.113C165.019,180.706 165.851,181.05 166.874,181.144L169.031,181.331C169.484,181.347 169.847,181.445 170.12,181.624C170.386,181.796 170.519,182.101 170.519,182.538C170.519,183.03 170.296,183.413 169.851,183.687C169.406,183.96 168.831,184.097 168.128,184.097C166.558,184.097 165.277,183.577 164.285,182.538Z" style="fill:white;fill-rule:nonzero;"/>
    </g>
    <g transform="matrix(2.60149,0,0,2.60149,-316.284,-439.657)">
        <path d="M175.581,174.089L174.363,174.089L174.363,175.952L175.581,175.952L175.581,183.253C175.581,184.214 175.863,184.948 176.425,185.456C176.972,185.988 177.675,186.253 178.535,186.253L179.812,186.253L179.812,183.945L178.898,183.945C178.304,183.96 178.015,183.659 178.031,183.042L178.031,175.952L179.812,175.952L179.812,174.089L178.031,174.089L178.031,170.386L175.581,170.386L175.581,174.089Z" style="fill:white;fill-rule:nonzero;"/>
    </g>
    <g transform="matrix(2.60149,0,0,2.60149,-319.363,-439.657)">
        <path d="M181.511,180.159C181.511,181.441 181.617,182.417 181.827,183.089C182.046,183.761 182.382,184.343 182.835,184.835C183.171,185.218 183.64,185.562 184.242,185.866C184.835,186.202 185.597,186.378 186.527,186.394C187.488,186.378 188.265,186.202 188.859,185.866C189.179,185.726 189.441,185.558 189.644,185.363C189.87,185.191 190.062,185.015 190.218,184.835C190.702,184.343 191.046,183.761 191.249,183.089C191.445,182.417 191.542,181.441 191.542,180.159C191.542,178.878 191.445,177.894 191.249,177.206C191.046,176.534 190.702,175.968 190.218,175.507C189.898,175.101 189.445,174.738 188.859,174.417C188.265,174.113 187.488,173.952 186.527,173.937C185.597,173.952 184.835,174.113 184.242,174.417C183.64,174.738 183.171,175.101 182.835,175.507C182.382,175.968 182.046,176.534 181.827,177.206C181.617,177.894 181.511,178.878 181.511,180.159ZM189.093,180.183C189.093,181.011 189.054,181.62 188.976,182.011C188.898,182.409 188.738,182.761 188.495,183.066C188.316,183.3 188.05,183.507 187.699,183.687C187.363,183.859 186.972,183.945 186.527,183.945C186.113,183.945 185.73,183.859 185.378,183.687C185.042,183.507 184.769,183.3 184.558,183.066C184.347,182.761 184.195,182.409 184.101,182.011C184.007,181.62 183.96,181.003 183.96,180.159C183.96,179.308 184.007,178.683 184.101,178.284C184.195,177.902 184.347,177.566 184.558,177.277C184.769,177.003 185.042,176.788 185.378,176.632C185.73,176.468 186.113,176.386 186.527,176.386C186.972,176.386 187.363,176.468 187.699,176.632C188.05,176.788 188.316,177.003 188.495,177.277C188.738,177.566 188.898,177.902 188.976,178.284C189.054,178.683 189.093,179.316 189.093,180.183Z" style="fill:white;fill-rule:nonzero;"/>
    </g>
    <g transform="matrix(2.60149,0,0,2.60149,-328.598,-439.657)">
        <path d="M200.085,186.253L202.675,186.253L202.675,175.601L202.722,175.601L206.296,183.804L208.452,183.804L212.027,175.601L212.085,175.601L212.085,186.253L214.675,186.253L214.675,169.167L212.226,169.167L207.421,180.3L202.523,169.167L200.085,169.167L200.085,186.253Z" style="fill:white;fill-rule:nonzero;"/>
    </g>
    <g transform="matrix(2.60149,0,0,2.60149,-331.677,-439.657)">
        <path d="M224.437,186.253L226.886,186.253L226.886,177.945C226.87,176.46 226.406,175.413 225.492,174.804C224.577,174.21 223.355,173.921 221.824,173.937C220.011,173.905 218.64,174.499 217.71,175.718L219.632,177.183C219.843,176.831 220.132,176.581 220.499,176.433C220.851,176.308 221.331,176.245 221.941,176.245C223.62,176.214 224.452,176.734 224.437,177.804L224.437,179.081L221.05,179.081C219.753,179.097 218.769,179.448 218.097,180.136C217.425,180.808 217.089,181.655 217.089,182.679C217.089,183.749 217.476,184.628 218.249,185.316C218.984,186.019 220.031,186.378 221.39,186.394C222.218,186.394 222.867,186.292 223.335,186.089C223.812,185.894 224.163,185.589 224.39,185.175L224.437,185.175L224.437,186.253ZM224.437,181.976C224.437,182.89 224.245,183.476 223.863,183.734C223.441,183.991 222.718,184.113 221.695,184.097C220.882,184.097 220.3,183.937 219.949,183.616C219.581,183.327 219.398,182.976 219.398,182.562C219.382,181.616 220.085,181.128 221.507,181.097L224.437,181.097L224.437,181.976Z" style="fill:white;fill-rule:nonzero;"/>
    </g>
    <g transform="matrix(2.60149,0,0,2.60149,-335.525,-439.657)">
        <path d="M230.05,186.253L232.499,186.253L232.499,179.011C232.499,178.159 232.73,177.511 233.191,177.066C233.644,176.613 234.222,176.386 234.925,176.386C235.628,176.386 236.202,176.613 236.648,177.066C237.101,177.511 237.327,178.159 237.327,179.011L237.327,186.253L239.777,186.253L239.777,178.167C239.738,176.777 239.304,175.722 238.476,175.003C237.64,174.292 236.718,173.937 235.71,173.937C234.406,173.937 233.351,174.417 232.546,175.378L232.499,175.378L232.499,174.089L230.05,174.089L230.05,186.253Z" style="fill:white;fill-rule:nonzero;"/>
    </g>
    <g transform="matrix(2.60149,0,0,2.60149,-339.374,-439.657)">
        <path d="M242.941,186.253L245.39,186.253L245.39,178.929C245.406,178.038 245.663,177.394 246.163,176.995C246.609,176.589 247.144,176.386 247.769,176.386C248.324,176.386 248.859,176.589 249.374,176.995L251.156,174.874C250.429,174.265 249.577,173.952 248.601,173.937C247.296,173.937 246.242,174.417 245.437,175.378L245.39,175.378L245.39,174.089L242.941,174.089L242.941,186.253Z" style="fill:white;fill-rule:nonzero;"/>
    </g>
    <g transform="matrix(2.60149,0,0,2.60149,-340.143,-439.657)">
        <rect x="252.351" y="174.089" width="2.449" height="12.164" style="fill:white;fill-rule:nonzero;"/>
    </g>
    <g transform="matrix(2.60149,0,0,2.60149,-343.991,-439.657)">
        <path d="M264.878,184.952L264.878,188.945L267.327,188.945L267.327,174.089L264.878,174.089L264.878,175.355C264.074,174.448 263.027,173.976 261.738,173.937C260.245,173.976 259.156,174.507 258.468,175.53C258.132,175.913 257.91,176.417 257.8,177.042C257.667,177.659 257.601,178.706 257.601,180.183C257.601,181.62 257.667,182.652 257.8,183.277C257.91,183.902 258.132,184.413 258.468,184.812C258.835,185.28 259.292,185.655 259.839,185.937C260.363,186.226 260.995,186.378 261.738,186.394C262.355,186.394 262.929,186.257 263.46,185.984C263.952,185.734 264.425,185.39 264.878,184.952ZM262.476,183.945C261.898,183.945 261.456,183.835 261.152,183.616C260.816,183.39 260.57,183.101 260.413,182.749C260.265,182.382 260.167,181.976 260.12,181.53C260.074,181.093 260.05,180.644 260.05,180.183C260.05,179.698 260.074,179.226 260.12,178.765C260.167,178.304 260.265,177.898 260.413,177.546C260.57,177.179 260.816,176.89 261.152,176.679C261.456,176.484 261.898,176.386 262.476,176.386C263.054,176.386 263.511,176.499 263.847,176.726C264.183,176.952 264.413,177.249 264.538,177.616C264.702,177.984 264.808,178.382 264.855,178.812C264.87,179.265 264.878,179.722 264.878,180.183C264.878,180.613 264.87,181.042 264.855,181.472C264.808,181.925 264.702,182.335 264.538,182.702C264.413,183.07 264.183,183.366 263.847,183.593C263.511,183.827 263.054,183.945 262.476,183.945Z" style="fill:white;fill-rule:nonzero;"/>
    </g>
    <g transform="matrix(2.60149,0,0,2.60149,-347.84,-439.657)">
        <path d="M270.492,182.175C270.507,183.55 270.956,184.589 271.839,185.292C272.652,186.011 273.562,186.378 274.57,186.394C275.867,186.394 276.917,185.913 277.722,184.952L277.769,184.952L277.769,186.253L280.218,186.253L280.218,174.089L277.769,174.089L277.769,181.331C277.769,182.152 277.542,182.792 277.089,183.253C276.644,183.714 276.07,183.945 275.367,183.945C274.663,183.945 274.085,183.714 273.632,183.253C273.171,182.792 272.941,182.152 272.941,181.331L272.941,174.089L270.492,174.089L270.492,182.175Z" style="fill:white;fill-rule:nonzero;"/>
    </g>
    <g transform="matrix(2.60149,0,0,2.60149,-351.149,-439.657)">
        <path d="M292.816,181.097L292.816,179.081C292.8,177.48 292.304,176.222 291.327,175.308C290.367,174.409 289.191,173.952 287.8,173.937C287.222,173.937 286.636,174.042 286.042,174.253C285.441,174.464 284.898,174.808 284.413,175.284C283.937,175.753 283.546,176.394 283.242,177.206C282.937,178.003 282.785,179.003 282.785,180.206C282.785,181.456 282.96,182.472 283.312,183.253C283.632,184.066 284.05,184.698 284.566,185.152C284.831,185.37 285.117,185.554 285.421,185.702C285.71,185.874 286.007,186.011 286.312,186.113C286.921,186.3 287.546,186.394 288.187,186.394C289.867,186.409 291.327,185.753 292.57,184.425L290.8,182.913C290.019,183.702 289.132,184.097 288.14,184.097C287.288,184.097 286.601,183.839 286.077,183.323C285.515,182.816 285.234,182.073 285.234,181.097L292.816,181.097ZM285.234,179.081C285.281,178.136 285.535,177.421 285.995,176.937C286.464,176.476 287.066,176.245 287.8,176.245C288.535,176.245 289.136,176.476 289.605,176.937C290.081,177.421 290.335,178.136 290.367,179.081L285.234,179.081Z" style="fill:white;fill-rule:nonzero;"/>
    </g>
    <g transform="matrix(2.60149,0,0,2.60149,-353.458,-439.657)">
        <path d="M294.597,186.253L303.667,186.253L303.667,183.945L297.574,183.945L303.667,176.034L303.667,174.089L294.925,174.089L294.925,176.245L300.691,176.245L294.597,184.308L294.597,186.253Z" style="fill:white;fill-rule:nonzero;"/>
    </g>
    <g transform="matrix(0.79464,0,0,0.79464,-10.0705,-798.912)">
        <path d="M415.373,1005.38L417.002,1010.34L422.123,1010.39L417.974,1013.38L419.58,1018.35L415.326,1015.27L411.131,1018.34L412.748,1013.38L408.541,1010.31L413.732,1010.34L415.373,1005.38Z" style="fill:white;fill-rule:nonzero;"/>
    </g>
    <g transform="matrix(0.79464,0,0,0.79464,-8.32763,-798.912)">
        <path d="M438.029,1005.38L439.658,1010.34L444.779,1010.39L440.631,1013.38L442.236,1018.35L437.982,1015.27L433.787,1018.34L435.404,1013.38L431.197,1010.31L436.389,1010.34L438.029,1005.38Z" style="fill:white;fill-rule:nonzero;"/>
    </g>
    <g transform="matrix(0.79464,0,0,0.79464,-6.58476,-798.912)">
        <path d="M460.686,1005.38L462.315,1010.34L467.436,1010.39L463.287,1013.38L464.893,1018.35L460.639,1015.27L456.443,1018.34L458.061,1013.38L453.854,1010.31L459.045,1010.34L460.686,1005.38Z" style="fill:white;fill-rule:nonzero;"/>
    </g>
    <g transform="matrix(0.79464,0,0,0.79464,-5.84188,-798.912)">
        <path d="M483.342,1005.38L484.971,1010.34L490.092,1010.39L485.944,1013.38L487.549,1018.35L483.295,1015.27L479.1,1018.34L480.717,1013.38L476.51,1010.31L481.701,1010.34L483.342,1005.38Z" style="fill:white;fill-rule:nonzero;"/>
    </g>
    <g transform="matrix(0.79464,0,0,0.79464,-4.09901,-798.912)">
        <path d="M505.998,1005.38L507.627,1010.34L512.748,1010.39L508.6,1013.38L510.205,1018.35L505.952,1015.27L501.756,1018.34L503.373,1013.38L499.166,1010.31L504.358,1010.34L505.998,1005.38Z" style="fill:white;fill-rule:nonzero;"/>
    </g>
    <g transform="matrix(0.79464,0,0,0.79464,-4.35613,-798.912)">
        <path d="M528.655,1005.38L530.284,1010.34L535.405,1010.39L531.256,1013.38L532.862,1018.35L528.608,1015.27L524.413,1018.34L526.03,1013.38L521.823,1010.31L527.014,1010.34L528.655,1005.38Z" style="fill:white;fill-rule:nonzero;"/>
    </g>
    <g transform="matrix(0.79464,0,0,0.79464,-4.61326,-798.912)">
        <path d="M551.311,1005.38L552.94,1010.34L558.061,1010.39L553.913,1013.38L555.518,1018.35L551.264,1015.27L547.069,1018.34L548.686,1013.38L544.479,1010.31L549.671,1010.34L551.311,1005.38Z" style="fill:white;fill-rule:nonzero;"/>
    </g>
    <g transform="matrix(1.16779,0,0,1.16779,-100.429,-225.933)">
        <path d="M97.423,252.578L99.896,245.113L99.942,245.113L102.415,252.578L97.423,252.578ZM104.478,258.695L107.208,258.695L100.997,241.609L98.829,241.609L92.618,258.695L95.36,258.695L96.673,254.875L103.153,254.875L104.478,258.695Z" style="fill:white;fill-rule:nonzero;"/>
        <path d="M109.247,254.547L107.548,256.492C109.368,258.055 111.544,258.836 114.075,258.836C117.989,258.789 119.989,257.133 120.075,253.867C120.075,252.656 119.696,251.594 118.938,250.68C118.173,249.75 116.989,249.176 115.388,248.957C114.575,248.856 113.935,248.766 113.466,248.688C112.622,248.531 112.009,248.25 111.626,247.844C111.243,247.445 111.052,247 111.052,246.508C111.067,245.688 111.353,245.07 111.907,244.656C112.438,244.258 113.103,244.059 113.899,244.059C115.438,244.09 116.849,244.527 118.13,245.371L119.571,243.238C118.001,242.106 116.153,241.516 114.028,241.469C112.263,241.484 110.899,241.945 109.938,242.852C108.946,243.766 108.45,244.969 108.45,246.461C108.45,247.703 108.845,248.758 109.634,249.625C110.399,250.469 111.517,251.012 112.985,251.254C113.806,251.371 114.56,251.477 115.247,251.57C116.747,251.828 117.489,252.594 117.474,253.867C117.442,255.422 116.317,256.215 114.099,256.246C112.224,256.231 110.606,255.664 109.247,254.547Z" style="fill:white;fill-rule:nonzero;"/>
        <rect x="122.806" y="241.609" width="2.59" height="17.086" style="fill:white;fill-rule:nonzero;"/>
        <path d="M129.204,254.547L127.505,256.492C129.325,258.055 131.501,258.836 134.032,258.836C137.946,258.789 139.946,257.133 140.032,253.867C140.032,252.656 139.653,251.594 138.896,250.68C138.13,249.75 136.946,249.176 135.345,248.957C134.532,248.856 133.892,248.766 133.423,248.688C132.579,248.531 131.966,248.25 131.583,247.844C131.2,247.445 131.009,247 131.009,246.508C131.024,245.688 131.31,245.07 131.864,244.656C132.396,244.258 133.06,244.059 133.856,244.059C135.396,244.09 136.806,244.527 138.087,245.371L139.528,243.238C137.958,242.106 136.11,241.516 133.985,241.469C132.22,241.484 130.856,241.945 129.896,242.852C128.903,243.766 128.407,244.969 128.407,246.461C128.407,247.703 128.802,248.758 129.591,249.625C130.356,250.469 131.474,251.012 132.942,251.254C133.763,251.371 134.517,251.477 135.204,251.57C136.704,251.828 137.446,252.594 137.431,253.867C137.399,255.422 136.274,256.215 134.056,256.246C132.181,256.231 130.563,255.664 129.204,254.547Z" style="fill:white;fill-rule:nonzero;"/>
        <path d="M145.657,258.695L148.259,258.695L148.259,243.918L152.935,243.918L152.935,241.609L140.981,241.609L140.981,243.918L145.657,243.918L145.657,258.695Z" style="fill:white;fill-rule:nonzero;"/>
        <path d="M154.763,258.695L165.673,258.695L165.673,256.246L157.353,256.246L157.353,251.231L164.454,251.231L164.454,248.934L157.353,248.934L157.353,244.059L165.673,244.059L165.673,241.609L154.763,241.609L154.763,258.695Z" style="fill:white;fill-rule:nonzero;"/>
        <path d="M168.11,258.695L170.7,258.695L170.7,246.555L170.747,246.555L178.47,258.695L180.919,258.695L180.919,241.609L178.329,241.609L178.329,253.75L178.282,253.75L170.548,241.609L168.11,241.609L168.11,258.695Z" style="fill:white;fill-rule:nonzero;"/>
        <path d="M193.306,253.914C192.587,255.469 191.501,256.246 190.048,256.246C189.438,256.246 188.915,256.117 188.478,255.859C188.032,255.641 187.673,255.356 187.399,255.004C187.063,254.637 186.841,254.156 186.731,253.563C186.606,252.969 186.544,251.832 186.544,250.152C186.544,248.473 186.606,247.328 186.731,246.719C186.841,246.141 187.063,245.668 187.399,245.301C187.673,244.949 188.032,244.656 188.478,244.422C188.915,244.195 189.438,244.074 190.048,244.059C190.876,244.074 191.579,244.313 192.157,244.774C192.712,245.258 193.095,245.844 193.306,246.531L196.048,246.531C195.774,245.102 195.118,243.902 194.079,242.934C193.04,241.973 191.696,241.484 190.048,241.469C188.704,241.484 187.583,241.805 186.685,242.43C185.771,243.047 185.106,243.75 184.692,244.539C184.435,244.953 184.243,245.496 184.118,246.168C184.001,246.84 183.942,248.168 183.942,250.152C183.942,252.106 184.001,253.426 184.118,254.113C184.181,254.481 184.259,254.785 184.353,255.027C184.454,255.262 184.567,255.508 184.692,255.766C185.106,256.555 185.771,257.25 186.685,257.852C187.583,258.477 188.704,258.805 190.048,258.836C191.532,258.836 192.817,258.414 193.903,257.57C194.958,256.719 195.673,255.5 196.048,253.914L193.306,253.914Z" style="fill:white;fill-rule:nonzero;"/>
        <rect x="197.876" y="241.609" width="2.59" height="17.086" style="fill:white;fill-rule:nonzero;"/>
        <path d="M207.087,252.578L209.56,245.113L209.606,245.113L212.079,252.578L207.087,252.578ZM214.142,258.695L216.872,258.695L210.661,241.609L208.493,241.609L202.282,258.695L205.024,258.695L206.337,254.875L212.817,254.875L214.142,258.695Z" style="fill:white;fill-rule:nonzero;"/>
        <path d="M224.454,258.695L227.044,258.695L227.044,248.043L227.091,248.043L230.665,256.246L232.821,256.246L236.396,248.043L236.454,248.043L236.454,258.695L239.044,258.695L239.044,241.609L236.595,241.609L231.79,252.742L226.892,241.609L224.454,241.609L224.454,258.695Z" style="fill:white;fill-rule:nonzero;"/>
        <rect x="242.642" y="241.609" width="2.59" height="17.086" style="fill:white;fill-rule:nonzero;"/>
        <path d="M254.372,251.734L257.853,251.734L257.853,252.625C257.837,253.695 257.501,254.559 256.845,255.215C256.188,255.902 255.356,256.246 254.349,256.246C253.739,256.246 253.216,256.117 252.778,255.859C252.333,255.641 251.974,255.356 251.7,255.004C251.364,254.637 251.142,254.156 251.032,253.563C250.907,252.969 250.845,251.832 250.845,250.152C250.845,248.473 250.907,247.328 251.032,246.719C251.142,246.141 251.364,245.668 251.7,245.301C251.974,244.949 252.333,244.656 252.778,244.422C253.216,244.195 253.739,244.074 254.349,244.059C255.177,244.074 255.88,244.313 256.458,244.774C257.013,245.258 257.396,245.844 257.606,246.531L260.349,246.531C260.075,245.102 259.419,243.902 258.38,242.934C257.341,241.973 255.997,241.484 254.349,241.469C253.005,241.484 251.884,241.805 250.985,242.43C250.071,243.047 249.407,243.75 248.993,244.539C248.735,244.953 248.544,245.496 248.419,246.168C248.302,246.84 248.243,248.168 248.243,250.152C248.243,252.106 248.302,253.426 248.419,254.113C248.481,254.481 248.56,254.785 248.653,255.027C248.755,255.262 248.868,255.508 248.993,255.766C249.407,256.555 250.071,257.25 250.985,257.852C251.884,258.477 253.005,258.805 254.349,258.836C256.091,258.805 257.536,258.215 258.685,257.066C259.825,255.91 260.411,254.477 260.442,252.766L260.442,249.285L254.372,249.285L254.372,251.734Z" style="fill:white;fill-rule:nonzero;"/>
        <path d="M266.056,243.918L270.11,243.918C270.938,243.918 271.571,244.094 272.009,244.445C272.563,244.844 272.849,245.488 272.864,246.379C272.864,247.121 272.626,247.746 272.149,248.254C271.665,248.801 270.938,249.082 269.97,249.098L266.056,249.098L266.056,243.918ZM263.466,258.695L266.056,258.695L266.056,251.395L269.36,251.395L272.888,258.695L275.97,258.695L272.009,251.113C274.181,250.277 275.282,248.699 275.313,246.379C275.267,244.801 274.7,243.586 273.614,242.734C272.716,241.984 271.556,241.609 270.134,241.609L263.466,241.609L263.466,258.695Z" style="fill:white;fill-rule:nonzero;"/>
        <path d="M281.126,252.578L283.599,245.113L283.646,245.113L286.118,252.578L281.126,252.578ZM288.181,258.695L290.911,258.695L284.7,241.609L282.532,241.609L276.321,258.695L279.063,258.695L280.376,254.875L286.856,254.875L288.181,258.695Z" style="fill:white;fill-rule:nonzero;"/>
        <path d="M293.853,258.695L296.454,258.695L296.454,243.918L301.13,243.918L301.13,241.609L289.177,241.609L289.177,243.918L293.853,243.918L293.853,258.695Z" style="fill:white;fill-rule:nonzero;"/>
        <path d="M301.938,250.152C301.938,252.106 301.997,253.426 302.114,254.113C302.177,254.481 302.255,254.785 302.349,255.027C302.45,255.262 302.563,255.508 302.688,255.766C303.103,256.555 303.767,257.25 304.681,257.852C305.579,258.477 306.7,258.805 308.044,258.836C309.403,258.805 310.536,258.477 311.442,257.852C312.341,257.25 312.989,256.555 313.388,255.766C313.677,255.352 313.876,254.801 313.985,254.113C314.087,253.426 314.138,252.106 314.138,250.152C314.138,248.168 314.087,246.84 313.985,246.168C313.876,245.496 313.677,244.953 313.388,244.539C312.989,243.75 312.341,243.047 311.442,242.43C310.536,241.805 309.403,241.484 308.044,241.469C306.7,241.484 305.579,241.805 304.681,242.43C303.767,243.047 303.103,243.75 302.688,244.539C302.431,244.953 302.239,245.496 302.114,246.168C301.997,246.84 301.938,248.168 301.938,250.152ZM304.54,250.152C304.54,248.473 304.603,247.328 304.728,246.719C304.837,246.141 305.06,245.668 305.396,245.301C305.669,244.949 306.028,244.656 306.474,244.422C306.911,244.195 307.435,244.074 308.044,244.059C308.661,244.074 309.196,244.195 309.649,244.422C310.079,244.656 310.423,244.949 310.681,245.301C311.017,245.668 311.247,246.141 311.372,246.719C311.489,247.328 311.548,248.473 311.548,250.152C311.548,251.832 311.489,252.969 311.372,253.563C311.247,254.156 311.017,254.637 310.681,255.004C310.423,255.356 310.079,255.641 309.649,255.859C309.196,256.117 308.661,256.246 308.044,256.246C307.435,256.246 306.911,256.117 306.474,255.859C306.028,255.641 305.669,255.356 305.396,255.004C305.06,254.637 304.837,254.156 304.728,253.563C304.603,252.969 304.54,251.832 304.54,250.152Z" style="fill:white;fill-rule:nonzero;"/>
        <path d="M319.751,243.918L323.806,243.918C324.634,243.918 325.267,244.094 325.704,244.445C326.259,244.844 326.544,245.488 326.56,246.379C326.56,247.121 326.321,247.746 325.845,248.254C325.36,248.801 324.634,249.082 323.665,249.098L319.751,249.098L319.751,243.918ZM317.161,258.695L319.751,258.695L319.751,251.395L323.056,251.395L326.583,258.695L329.665,258.695L325.704,251.113C327.876,250.277 328.978,248.699 329.009,246.379C328.962,244.801 328.396,243.586 327.31,242.734C326.411,241.984 325.251,241.609 323.829,241.609L317.161,241.609L317.161,258.695Z" style="fill:white;fill-rule:nonzero;"/>
        <rect x="331.798" y="241.609" width="2.59" height="17.086" style="fill:white;fill-rule:nonzero;"/>
        <path d="M341.009,252.578L343.481,245.113L343.528,245.113L346.001,252.578L341.009,252.578ZM348.063,258.695L350.794,258.695L344.583,241.609L342.415,241.609L336.204,258.695L338.946,258.695L340.259,254.875L346.739,254.875L348.063,258.695Z" style="fill:white;fill-rule:nonzero;"/>
        <rect x="358.376" y="241.609" width="2.59" height="17.086" style="fill:white;fill-rule:nonzero;"/>
        <path d="M364.563,258.695L367.153,258.695L367.153,246.555L367.2,246.555L374.923,258.695L377.372,258.695L377.372,241.609L374.782,241.609L374.782,253.75L374.735,253.75L367.001,241.609L364.563,241.609L364.563,258.695Z" style="fill:white;fill-rule:nonzero;"/>
        <path d="M383.876,258.695L386.478,258.695L386.478,243.918L391.153,243.918L391.153,241.609L379.2,241.609L379.2,243.918L383.876,243.918L383.876,258.695Z" style="fill:white;fill-rule:nonzero;"/>
        <path d="M392.981,258.695L403.892,258.695L403.892,256.246L395.571,256.246L395.571,251.231L402.673,251.231L402.673,248.934L395.571,248.934L395.571,244.059L403.892,244.059L403.892,241.609L392.981,241.609L392.981,258.695Z" style="fill:white;fill-rule:nonzero;"/>
        <path d="M411.872,251.734L415.353,251.734L415.353,252.625C415.337,253.695 415.001,254.559 414.345,255.215C413.688,255.902 412.856,256.246 411.849,256.246C411.239,256.246 410.716,256.117 410.278,255.859C409.833,255.641 409.474,255.356 409.2,255.004C408.864,254.637 408.642,254.156 408.532,253.563C408.407,252.969 408.345,251.832 408.345,250.152C408.345,248.473 408.407,247.328 408.532,246.719C408.642,246.141 408.864,245.668 409.2,245.301C409.474,244.949 409.833,244.656 410.278,244.422C410.716,244.195 411.239,244.074 411.849,244.059C412.677,244.074 413.38,244.313 413.958,244.774C414.513,245.258 414.896,245.844 415.106,246.531L417.849,246.531C417.575,245.102 416.919,243.902 415.88,242.934C414.841,241.973 413.497,241.484 411.849,241.469C410.505,241.484 409.384,241.805 408.485,242.43C407.571,243.047 406.907,243.75 406.493,244.539C406.235,244.953 406.044,245.496 405.919,246.168C405.802,246.84 405.743,248.168 405.743,250.152C405.743,252.106 405.802,253.426 405.919,254.113C405.981,254.481 406.06,254.785 406.153,255.027C406.255,255.262 406.368,255.508 406.493,255.766C406.907,256.555 407.571,257.25 408.485,257.852C409.384,258.477 410.505,258.805 411.849,258.836C413.591,258.805 415.036,258.215 416.185,257.066C417.325,255.91 417.911,254.477 417.942,252.766L417.942,249.285L411.872,249.285L411.872,251.734Z" style="fill:white;fill-rule:nonzero;"/>
        <path d="M423.556,243.918L427.61,243.918C428.438,243.918 429.071,244.094 429.509,244.445C430.063,244.844 430.349,245.488 430.364,246.379C430.364,247.121 430.126,247.746 429.649,248.254C429.165,248.801 428.438,249.082 427.47,249.098L423.556,249.098L423.556,243.918ZM420.966,258.695L423.556,258.695L423.556,251.395L426.86,251.395L430.388,258.695L433.47,258.695L429.509,251.113C431.681,250.277 432.782,248.699 432.813,246.379C432.767,244.801 432.2,243.586 431.114,242.734C430.216,241.984 429.056,241.609 427.634,241.609L420.966,241.609L420.966,258.695Z" style="fill:white;fill-rule:nonzero;"/>
        <path d="M438.626,252.578L441.099,245.113L441.146,245.113L443.618,252.578L438.626,252.578ZM445.681,258.695L448.411,258.695L442.2,241.609L440.032,241.609L433.821,258.695L436.563,258.695L437.876,254.875L444.356,254.875L445.681,258.695Z" style="fill:white;fill-rule:nonzero;"/>
        <path d="M450.239,258.695L461.149,258.695L461.149,256.246L452.829,256.246L452.829,241.609L450.239,241.609L450.239,258.695Z" style="fill:white;fill-rule:nonzero;"/>
    </g>
</svg>
