<?xml version="1.0" encoding="UTF-8" standalone="no"?>
<!DOCTYPE svg PUBLIC "-//W3C//DTD SVG 1.1//EN" "http://www.w3.org/Graphics/SVG/1.1/DTD/svg11.dtd">
<svg width="100%" height="100%" viewBox="0 0 24 24" version="1.1" xmlns="http://www.w3.org/2000/svg" xmlns:xlink="http://www.w3.org/1999/xlink" xml:space="preserve" xmlns:serif="http://www.serif.com/" style="fill-rule:evenodd;clip-rule:evenodd;stroke-linejoin:round;stroke-miterlimit:2;">
    <path d="M22,5.796C21.251,6.128 20.457,6.346 19.643,6.442C20.5,5.93 21.142,5.122 21.448,4.172C20.643,4.65 19.761,4.987 18.842,5.168C18.066,4.342 16.983,3.874 15.85,3.874C13.599,3.874 11.746,5.725 11.745,7.976C11.744,8.291 11.78,8.604 11.85,8.911C8.553,8.745 5.476,7.186 3.394,4.624C2.311,6.488 2.871,8.904 4.664,10.102C4.012,10.082 3.374,9.906 2.804,9.589L2.804,9.641C2.804,11.587 4.188,13.279 6.096,13.664C5.744,13.76 5.38,13.808 5.015,13.807C4.756,13.807 4.497,13.783 4.242,13.735C4.778,15.402 6.323,16.551 8.074,16.585C6.354,17.931 4.169,18.542 2,18.282C3.876,19.488 6.06,20.128 8.29,20.126C8.316,20.126 8.342,20.126 8.368,20.126C14.729,20.126 19.962,14.893 19.962,8.532C19.962,8.506 19.962,8.479 19.962,8.453C19.962,8.275 19.958,8.098 19.949,7.923C20.754,7.341 21.448,6.621 22,5.796Z" style="fill:rgb(82,148,216);fill-rule:nonzero;"/>
</svg>
